<svg xmlns="http://www.w3.org/2000/svg" xmlns:xlink="http://www.w3.org/1999/xlink" width="400" zoomAndPan="magnify" viewBox="0 0 300 299.999988" height="400" preserveAspectRatio="xMidYMid meet" version="1.0"><defs><clipPath id="5d7e8a90f4"><path d="M 3 54.617188 L 296 54.617188 L 296 245.117188 L 3 245.117188 Z M 3 54.617188 " clip-rule="nonzero"/></clipPath></defs><g clip-path="url(#5d7e8a90f4)"><path fill="#ffffff" d="M 273.300781 245.117188 L 25.984375 245.117188 C 25.242188 245.117188 24.5 245.078125 23.761719 245.007812 C 23.019531 244.933594 22.285156 244.824219 21.558594 244.679688 C 20.828125 244.535156 20.109375 244.355469 19.398438 244.140625 C 18.6875 243.925781 17.988281 243.675781 17.300781 243.390625 C 16.613281 243.105469 15.945312 242.789062 15.289062 242.4375 C 14.632812 242.089844 13.996094 241.707031 13.378906 241.292969 C 12.761719 240.882812 12.164062 240.441406 11.589844 239.96875 C 11.015625 239.496094 10.464844 239 9.941406 238.472656 C 9.414062 237.949219 8.917969 237.398438 8.445312 236.824219 C 7.972656 236.25 7.53125 235.65625 7.117188 235.039062 C 6.707031 234.417969 6.324219 233.785156 5.972656 233.128906 C 5.625 232.472656 5.304688 231.804688 5.023438 231.117188 C 4.738281 230.429688 4.488281 229.730469 4.273438 229.019531 C 4.054688 228.308594 3.875 227.589844 3.730469 226.863281 C 3.585938 226.132812 3.476562 225.398438 3.402344 224.660156 C 3.332031 223.921875 3.292969 223.179688 3.292969 222.4375 L 3.292969 77.296875 C 3.292969 76.550781 3.332031 75.8125 3.402344 75.070312 C 3.476562 74.332031 3.585938 73.597656 3.730469 72.871094 C 3.875 72.140625 4.054688 71.421875 4.273438 70.710938 C 4.488281 70 4.738281 69.300781 5.023438 68.617188 C 5.304688 67.929688 5.625 67.257812 5.972656 66.605469 C 6.324219 65.949219 6.707031 65.3125 7.117188 64.695312 C 7.53125 64.078125 7.972656 63.480469 8.445312 62.90625 C 8.917969 62.332031 9.414062 61.785156 9.941406 61.257812 C 10.464844 60.734375 11.015625 60.234375 11.589844 59.765625 C 12.164062 59.292969 12.761719 58.851562 13.378906 58.4375 C 13.996094 58.027344 14.632812 57.644531 15.289062 57.292969 C 15.945312 56.945312 16.613281 56.628906 17.300781 56.34375 C 17.988281 56.058594 18.6875 55.808594 19.398438 55.59375 C 20.109375 55.378906 20.828125 55.195312 21.558594 55.050781 C 22.285156 54.90625 23.019531 54.796875 23.761719 54.726562 C 24.5 54.652344 25.242188 54.617188 25.984375 54.617188 L 273.300781 54.617188 C 274.042969 54.617188 274.785156 54.652344 275.523438 54.726562 C 276.261719 54.796875 276.996094 54.90625 277.726562 55.050781 C 278.453125 55.195312 279.175781 55.378906 279.886719 55.59375 C 280.597656 55.808594 281.296875 56.058594 281.980469 56.34375 C 282.667969 56.628906 283.339844 56.945312 283.996094 57.292969 C 284.652344 57.644531 285.285156 58.027344 285.90625 58.4375 C 286.523438 58.851562 287.117188 59.292969 287.695312 59.765625 C 288.269531 60.234375 288.816406 60.734375 289.34375 61.257812 C 289.867188 61.785156 290.367188 62.332031 290.839844 62.90625 C 291.308594 63.480469 291.753906 64.078125 292.164062 64.695312 C 292.578125 65.3125 292.960938 65.949219 293.308594 66.605469 C 293.660156 67.257812 293.976562 67.929688 294.261719 68.617188 C 294.546875 69.300781 294.796875 70 295.011719 70.710938 C 295.226562 71.421875 295.40625 72.140625 295.554688 72.871094 C 295.699219 73.597656 295.808594 74.332031 295.878906 75.070312 C 295.953125 75.8125 295.988281 76.550781 295.988281 77.296875 L 295.988281 222.4375 C 295.988281 223.179688 295.953125 223.921875 295.878906 224.660156 C 295.808594 225.398438 295.699219 226.132812 295.554688 226.863281 C 295.40625 227.589844 295.226562 228.308594 295.011719 229.019531 C 294.796875 229.730469 294.546875 230.429688 294.261719 231.117188 C 293.976562 231.804688 293.660156 232.472656 293.308594 233.128906 C 292.960938 233.785156 292.578125 234.417969 292.164062 235.039062 C 291.753906 235.65625 291.308594 236.25 290.839844 236.824219 C 290.367188 237.398438 289.867188 237.949219 289.34375 238.472656 C 288.816406 239 288.269531 239.496094 287.695312 239.96875 C 287.117188 240.441406 286.523438 240.882812 285.90625 241.292969 C 285.285156 241.707031 284.652344 242.089844 283.996094 242.4375 C 283.339844 242.789062 282.667969 243.105469 281.980469 243.390625 C 281.296875 243.675781 280.597656 243.925781 279.886719 244.140625 C 279.175781 244.355469 278.453125 244.535156 277.726562 244.679688 C 276.996094 244.824219 276.261719 244.933594 275.523438 245.007812 C 274.785156 245.078125 274.042969 245.117188 273.300781 245.117188 Z M 25.984375 63.6875 C 25.089844 63.6875 24.203125 63.773438 23.328125 63.949219 C 22.453125 64.125 21.601562 64.382812 20.773438 64.722656 C 19.949219 65.066406 19.164062 65.484375 18.421875 65.980469 C 17.675781 66.476562 16.988281 67.042969 16.359375 67.671875 C 15.726562 68.304688 15.160156 68.992188 14.664062 69.734375 C 14.167969 70.476562 13.75 71.261719 13.40625 72.085938 C 13.066406 72.914062 12.804688 73.765625 12.632812 74.640625 C 12.457031 75.515625 12.371094 76.402344 12.371094 77.296875 L 12.371094 222.4375 C 12.371094 223.332031 12.457031 224.214844 12.632812 225.09375 C 12.804688 225.96875 13.066406 226.820312 13.40625 227.644531 C 13.75 228.46875 14.167969 229.253906 14.664062 229.996094 C 15.160156 230.742188 15.726562 231.429688 16.359375 232.058594 C 16.988281 232.691406 17.675781 233.253906 18.421875 233.75 C 19.164062 234.25 19.949219 234.667969 20.773438 235.007812 C 21.601562 235.351562 22.453125 235.609375 23.328125 235.785156 C 24.203125 235.957031 25.089844 236.046875 25.984375 236.046875 L 273.300781 236.046875 C 274.191406 236.046875 275.078125 235.957031 275.957031 235.785156 C 276.832031 235.609375 277.683594 235.351562 278.507812 235.007812 C 279.335938 234.667969 280.121094 234.25 280.863281 233.75 C 281.605469 233.253906 282.292969 232.691406 282.925781 232.058594 C 283.558594 231.429688 284.121094 230.742188 284.617188 229.996094 C 285.117188 229.253906 285.535156 228.46875 285.875 227.644531 C 286.21875 226.820312 286.476562 225.96875 286.652344 225.09375 C 286.824219 224.214844 286.914062 223.332031 286.914062 222.4375 L 286.914062 77.296875 C 286.914062 76.402344 286.824219 75.515625 286.652344 74.640625 C 286.476562 73.765625 286.21875 72.914062 285.875 72.085938 C 285.535156 71.261719 285.117188 70.476562 284.617188 69.734375 C 284.121094 68.992188 283.558594 68.304688 282.925781 67.671875 C 282.292969 67.042969 281.605469 66.476562 280.863281 65.980469 C 280.121094 65.484375 279.335938 65.066406 278.507812 64.722656 C 277.683594 64.382812 276.832031 64.125 275.957031 63.949219 C 275.078125 63.773438 274.191406 63.6875 273.300781 63.6875 Z M 25.984375 63.6875 " fill-opacity="1" fill-rule="nonzero"/></g><path fill="#ffffff" d="M 221.339844 125.601562 C 220.847656 125.597656 220.355469 125.582031 219.859375 125.550781 C 219.367188 125.519531 218.878906 125.472656 218.386719 125.410156 C 217.898438 125.347656 217.410156 125.269531 216.925781 125.179688 C 216.441406 125.089844 215.960938 124.980469 215.480469 124.859375 C 215.003906 124.738281 214.527344 124.601562 214.058594 124.453125 C 213.585938 124.300781 213.121094 124.136719 212.664062 123.957031 C 212.203125 123.78125 211.75 123.585938 211.300781 123.378906 C 210.851562 123.175781 210.410156 122.953125 209.976562 122.71875 C 209.542969 122.484375 209.113281 122.238281 208.695312 121.980469 C 208.273438 121.71875 207.863281 121.445312 207.460938 121.160156 C 207.058594 120.875 206.664062 120.578125 206.28125 120.269531 C 205.894531 119.960938 205.519531 119.640625 205.15625 119.308594 C 204.792969 118.976562 204.4375 118.632812 204.09375 118.277344 C 203.75 117.925781 203.417969 117.558594 203.09375 117.1875 C 202.773438 116.8125 202.464844 116.425781 202.167969 116.035156 C 201.867188 115.640625 201.582031 115.238281 201.308594 114.828125 C 201.035156 114.417969 200.777344 113.996094 200.527344 113.570312 C 200.28125 113.144531 200.046875 112.710938 199.824219 112.269531 C 199.605469 111.828125 199.398438 111.378906 199.203125 110.925781 C 199.011719 110.472656 198.832031 110.011719 198.667969 109.546875 C 198.5 109.082031 198.351562 108.613281 198.214844 108.140625 C 198.078125 107.664062 197.957031 107.1875 197.847656 106.707031 C 197.742188 106.222656 197.648438 105.738281 197.570312 105.253906 C 197.496094 104.765625 197.433594 104.277344 197.382812 103.785156 C 197.335938 103.292969 197.304688 102.800781 197.289062 102.308594 C 197.269531 101.816406 197.269531 101.324219 197.28125 100.828125 C 197.296875 100.335938 197.324219 99.84375 197.367188 99.351562 C 197.410156 98.859375 197.46875 98.371094 197.542969 97.882812 C 197.613281 97.394531 197.703125 96.910156 197.804688 96.429688 C 197.910156 95.945312 198.027344 95.464844 198.160156 94.992188 C 198.292969 94.515625 198.4375 94.046875 198.601562 93.578125 C 198.761719 93.113281 198.9375 92.652344 199.128906 92.195312 C 199.316406 91.742188 199.519531 91.292969 199.738281 90.847656 C 199.957031 90.40625 200.1875 89.96875 200.429688 89.542969 C 200.675781 89.113281 200.929688 88.691406 201.199219 88.277344 C 201.46875 87.867188 201.753906 87.460938 202.046875 87.066406 C 202.34375 86.667969 202.648438 86.28125 202.96875 85.90625 C 203.285156 85.527344 203.613281 85.160156 203.957031 84.804688 C 204.296875 84.449219 204.648438 84.101562 205.011719 83.765625 C 205.371094 83.433594 205.746094 83.109375 206.125 82.796875 C 206.507812 82.484375 206.898438 82.183594 207.300781 81.894531 C 207.699219 81.605469 208.109375 81.328125 208.527344 81.066406 C 208.945312 80.804688 209.371094 80.554688 209.800781 80.316406 C 210.234375 80.078125 210.675781 79.855469 211.121094 79.644531 C 211.566406 79.433594 212.019531 79.238281 212.480469 79.054688 C 212.9375 78.871094 213.402344 78.703125 213.871094 78.550781 C 214.339844 78.394531 214.8125 78.253906 215.289062 78.128906 C 215.765625 78.003906 216.246094 77.894531 216.730469 77.800781 C 217.214844 77.703125 217.703125 77.621094 218.191406 77.554688 C 218.679688 77.492188 219.171875 77.441406 219.664062 77.402344 C 220.15625 77.367188 220.648438 77.347656 221.144531 77.34375 C 221.636719 77.335938 222.128906 77.347656 222.621094 77.371094 C 223.117188 77.394531 223.609375 77.433594 224.097656 77.488281 C 224.589844 77.542969 225.078125 77.613281 225.5625 77.699219 C 226.050781 77.785156 226.53125 77.882812 227.011719 78 C 227.492188 78.113281 227.96875 78.242188 228.441406 78.386719 C 228.914062 78.527344 229.382812 78.6875 229.84375 78.859375 C 230.304688 79.03125 230.761719 79.21875 231.214844 79.417969 C 231.664062 79.617188 232.109375 79.832031 232.546875 80.058594 C 232.984375 80.285156 233.417969 80.527344 233.839844 80.78125 C 234.261719 81.035156 234.675781 81.300781 235.085938 81.582031 C 235.492188 81.859375 235.890625 82.152344 236.277344 82.457031 C 236.667969 82.757812 237.046875 83.074219 237.414062 83.402344 C 237.785156 83.730469 238.144531 84.066406 238.492188 84.417969 C 238.707031 84.625 238.898438 84.855469 239.066406 85.101562 C 239.234375 85.351562 239.375 85.609375 239.492188 85.886719 C 239.609375 86.164062 239.695312 86.445312 239.757812 86.738281 C 239.816406 87.03125 239.847656 87.328125 239.851562 87.628906 C 239.851562 87.925781 239.824219 88.222656 239.769531 88.515625 C 239.714844 88.808594 239.628906 89.09375 239.515625 89.371094 C 239.402344 89.648438 239.265625 89.914062 239.101562 90.164062 C 238.9375 90.414062 238.75 90.644531 238.539062 90.855469 C 238.328125 91.070312 238.101562 91.261719 237.851562 91.429688 C 237.605469 91.597656 237.34375 91.738281 237.066406 91.855469 C 236.792969 91.972656 236.507812 92.058594 236.214844 92.121094 C 235.921875 92.179688 235.625 92.210938 235.328125 92.214844 C 235.027344 92.214844 234.730469 92.1875 234.4375 92.132812 C 234.144531 92.074219 233.859375 91.992188 233.582031 91.878906 C 233.304688 91.765625 233.039062 91.628906 232.789062 91.464844 C 232.539062 91.300781 232.308594 91.113281 232.09375 90.902344 C 230.675781 89.464844 229.03125 88.351562 227.167969 87.566406 C 225.304688 86.777344 223.363281 86.378906 221.339844 86.367188 C 220.351562 86.367188 219.371094 86.464844 218.402344 86.65625 C 217.433594 86.851562 216.492188 87.136719 215.578125 87.515625 C 214.664062 87.894531 213.796875 88.359375 212.976562 88.90625 C 212.152344 89.457031 211.394531 90.082031 210.695312 90.78125 C 209.996094 91.480469 209.371094 92.242188 208.820312 93.0625 C 208.273438 93.882812 207.808594 94.75 207.429688 95.664062 C 207.050781 96.578125 206.765625 97.519531 206.574219 98.488281 C 206.382812 99.457031 206.285156 100.4375 206.285156 101.425781 C 206.285156 102.414062 206.382812 103.390625 206.574219 104.363281 C 206.765625 105.332031 207.050781 106.273438 207.429688 107.183594 C 207.808594 108.097656 208.273438 108.964844 208.820312 109.789062 C 209.371094 110.609375 209.996094 111.371094 210.695312 112.070312 C 211.394531 112.769531 212.152344 113.394531 212.976562 113.941406 C 213.796875 114.492188 214.664062 114.957031 215.578125 115.335938 C 216.492188 115.714844 217.433594 116 218.402344 116.191406 C 219.371094 116.386719 220.351562 116.484375 221.339844 116.484375 C 223.363281 116.46875 225.304688 116.070312 227.167969 115.285156 C 229.03125 114.5 230.675781 113.386719 232.09375 111.949219 C 232.308594 111.738281 232.535156 111.550781 232.785156 111.386719 C 233.035156 111.222656 233.296875 111.082031 233.570312 110.96875 C 233.847656 110.855469 234.132812 110.773438 234.425781 110.714844 C 234.714844 110.660156 235.011719 110.628906 235.308594 110.632812 C 235.609375 110.632812 235.902344 110.664062 236.195312 110.722656 C 236.488281 110.78125 236.769531 110.867188 237.046875 110.984375 C 237.320312 111.097656 237.582031 111.238281 237.828125 111.40625 C 238.078125 111.570312 238.304688 111.761719 238.515625 111.972656 C 238.726562 112.183594 238.914062 112.414062 239.078125 112.660156 C 239.242188 112.910156 239.378906 113.171875 239.492188 113.449219 C 239.605469 113.722656 239.691406 114.007812 239.75 114.300781 C 239.804688 114.589844 239.835938 114.886719 239.832031 115.183594 C 239.832031 115.484375 239.800781 115.777344 239.742188 116.070312 C 239.683594 116.363281 239.597656 116.644531 239.480469 116.917969 C 239.367188 117.195312 239.226562 117.457031 239.058594 117.703125 C 238.894531 117.949219 238.703125 118.179688 238.492188 118.386719 C 237.371094 119.523438 236.152344 120.539062 234.828125 121.433594 C 233.507812 122.332031 232.109375 123.085938 230.636719 123.707031 C 229.164062 124.324219 227.648438 124.792969 226.082031 125.113281 C 224.519531 125.429688 222.9375 125.59375 221.339844 125.601562 Z M 221.339844 125.601562 " fill-opacity="1" fill-rule="nonzero"/><path fill="#ffffff" d="M 196.019531 201.074219 L 30.523438 201.074219 C 30.222656 201.074219 29.929688 201.046875 29.636719 200.988281 C 29.34375 200.929688 29.0625 200.84375 28.785156 200.730469 C 28.511719 200.617188 28.25 200.476562 28 200.308594 C 27.753906 200.144531 27.523438 199.957031 27.3125 199.746094 C 27.101562 199.535156 26.914062 199.304688 26.75 199.058594 C 26.582031 198.8125 26.445312 198.550781 26.328125 198.273438 C 26.214844 198 26.128906 197.714844 26.070312 197.425781 C 26.011719 197.132812 25.984375 196.835938 25.984375 196.539062 C 25.984375 196.242188 26.011719 195.945312 26.070312 195.652344 C 26.128906 195.363281 26.214844 195.078125 26.328125 194.804688 C 26.445312 194.527344 26.582031 194.265625 26.75 194.019531 C 26.914062 193.769531 27.101562 193.542969 27.3125 193.332031 C 27.523438 193.121094 27.753906 192.933594 28 192.769531 C 28.25 192.601562 28.511719 192.460938 28.785156 192.347656 C 29.0625 192.234375 29.34375 192.148438 29.636719 192.089844 C 29.929688 192.03125 30.222656 192.003906 30.523438 192.003906 L 196.019531 192.003906 C 196.316406 192.003906 196.613281 192.03125 196.902344 192.089844 C 197.195312 192.148438 197.480469 192.234375 197.753906 192.347656 C 198.03125 192.460938 198.292969 192.601562 198.539062 192.769531 C 198.789062 192.933594 199.015625 193.121094 199.226562 193.332031 C 199.4375 193.542969 199.625 193.769531 199.792969 194.019531 C 199.957031 194.265625 200.097656 194.527344 200.210938 194.804688 C 200.324219 195.078125 200.410156 195.363281 200.46875 195.652344 C 200.527344 195.945312 200.558594 196.242188 200.558594 196.539062 C 200.558594 196.835938 200.527344 197.132812 200.46875 197.425781 C 200.410156 197.714844 200.324219 198 200.210938 198.273438 C 200.097656 198.550781 199.957031 198.8125 199.792969 199.058594 C 199.625 199.304688 199.4375 199.535156 199.226562 199.746094 C 199.015625 199.957031 198.789062 200.144531 198.539062 200.308594 C 198.292969 200.476562 198.03125 200.617188 197.753906 200.730469 C 197.480469 200.84375 197.195312 200.929688 196.902344 200.988281 C 196.613281 201.046875 196.316406 201.074219 196.019531 201.074219 Z M 196.019531 201.074219 " fill-opacity="1" fill-rule="nonzero"/><path fill="#ffffff" d="M 117.558594 218.445312 L 30.523438 218.445312 C 30.222656 218.445312 29.929688 218.417969 29.636719 218.359375 C 29.34375 218.300781 29.0625 218.214844 28.785156 218.101562 C 28.511719 217.988281 28.25 217.847656 28 217.683594 C 27.753906 217.515625 27.523438 217.328125 27.3125 217.117188 C 27.101562 216.90625 26.914062 216.679688 26.75 216.429688 C 26.582031 216.183594 26.445312 215.921875 26.328125 215.648438 C 26.214844 215.371094 26.128906 215.085938 26.070312 214.796875 C 26.011719 214.503906 25.984375 214.207031 25.984375 213.910156 C 25.984375 213.613281 26.011719 213.316406 26.070312 213.027344 C 26.128906 212.734375 26.214844 212.449219 26.328125 212.175781 C 26.445312 211.898438 26.582031 211.636719 26.75 211.390625 C 26.914062 211.144531 27.101562 210.914062 27.3125 210.703125 C 27.523438 210.492188 27.753906 210.304688 28 210.140625 C 28.25 209.972656 28.511719 209.835938 28.785156 209.71875 C 29.0625 209.605469 29.34375 209.519531 29.636719 209.460938 C 29.929688 209.402344 30.222656 209.375 30.523438 209.375 L 117.558594 209.375 C 117.855469 209.375 118.152344 209.402344 118.445312 209.460938 C 118.738281 209.519531 119.019531 209.605469 119.296875 209.71875 C 119.570312 209.835938 119.832031 209.972656 120.078125 210.140625 C 120.328125 210.304688 120.558594 210.492188 120.769531 210.703125 C 120.976562 210.914062 121.167969 211.144531 121.332031 211.390625 C 121.496094 211.636719 121.636719 211.898438 121.75 212.175781 C 121.867188 212.449219 121.953125 212.734375 122.007812 213.027344 C 122.066406 213.316406 122.097656 213.613281 122.097656 213.910156 C 122.097656 214.207031 122.066406 214.503906 122.007812 214.796875 C 121.953125 215.085938 121.867188 215.371094 121.75 215.648438 C 121.636719 215.921875 121.496094 216.183594 121.332031 216.429688 C 121.167969 216.679688 120.976562 216.90625 120.769531 217.117188 C 120.558594 217.328125 120.328125 217.515625 120.078125 217.683594 C 119.832031 217.847656 119.570312 217.988281 119.296875 218.101562 C 119.019531 218.214844 118.738281 218.300781 118.445312 218.359375 C 118.152344 218.417969 117.855469 218.445312 117.558594 218.445312 Z M 117.558594 218.445312 " fill-opacity="1" fill-rule="nonzero"/><path fill="#ffffff" d="M 97.457031 133.21875 L 35.421875 133.21875 C 34.828125 133.21875 34.238281 133.164062 33.652344 133.046875 C 33.066406 132.929688 32.5 132.757812 31.949219 132.53125 C 31.398438 132.300781 30.875 132.023438 30.378906 131.691406 C 29.886719 131.359375 29.425781 130.984375 29.003906 130.5625 C 28.585938 130.140625 28.207031 129.683594 27.875 129.1875 C 27.546875 128.695312 27.265625 128.171875 27.039062 127.621094 C 26.808594 127.070312 26.636719 126.503906 26.523438 125.917969 C 26.40625 125.335938 26.347656 124.746094 26.347656 124.148438 L 26.347656 86.367188 C 26.347656 85.769531 26.40625 85.179688 26.523438 84.597656 C 26.636719 84.011719 26.808594 83.445312 27.039062 82.894531 C 27.265625 82.34375 27.546875 81.820312 27.875 81.328125 C 28.207031 80.832031 28.585938 80.375 29.003906 79.953125 C 29.425781 79.53125 29.886719 79.15625 30.378906 78.824219 C 30.875 78.492188 31.398438 78.214844 31.949219 77.984375 C 32.5 77.757812 33.066406 77.585938 33.652344 77.46875 C 34.238281 77.351562 34.828125 77.296875 35.421875 77.296875 L 97.457031 77.296875 C 98.050781 77.296875 98.640625 77.351562 99.226562 77.46875 C 99.8125 77.585938 100.378906 77.757812 100.929688 77.984375 C 101.480469 78.214844 102.003906 78.492188 102.5 78.824219 C 102.992188 79.15625 103.453125 79.53125 103.875 79.953125 C 104.292969 80.375 104.671875 80.832031 105.003906 81.328125 C 105.332031 81.820312 105.613281 82.34375 105.839844 82.894531 C 106.070312 83.445312 106.242188 84.011719 106.355469 84.597656 C 106.472656 85.179688 106.53125 85.769531 106.53125 86.367188 L 106.53125 124.105469 C 106.535156 124.703125 106.480469 125.292969 106.363281 125.878906 C 106.25 126.464844 106.082031 127.035156 105.855469 127.589844 C 105.628906 128.140625 105.347656 128.667969 105.019531 129.164062 C 104.6875 129.664062 104.3125 130.125 103.890625 130.546875 C 103.46875 130.972656 103.007812 131.347656 102.511719 131.683594 C 102.015625 132.015625 101.492188 132.296875 100.941406 132.527344 C 100.386719 132.753906 99.820312 132.929688 99.230469 133.046875 C 98.644531 133.160156 98.054688 133.21875 97.457031 133.21875 Z M 35.421875 86.367188 L 35.421875 124.105469 L 97.457031 124.105469 L 97.457031 86.367188 Z M 35.421875 86.367188 " fill-opacity="1" fill-rule="nonzero"/><path fill="#ffffff" d="M 54.800781 133.21875 C 54.5 133.21875 54.207031 133.191406 53.914062 133.132812 C 53.621094 133.074219 53.339844 132.988281 53.0625 132.875 C 52.789062 132.761719 52.527344 132.621094 52.277344 132.457031 C 52.03125 132.289062 51.800781 132.101562 51.589844 131.890625 C 51.378906 131.679688 51.191406 131.453125 51.027344 131.203125 C 50.859375 130.957031 50.722656 130.695312 50.605469 130.421875 C 50.492188 130.144531 50.40625 129.863281 50.347656 129.570312 C 50.289062 129.277344 50.261719 128.984375 50.261719 128.683594 L 50.261719 81.832031 C 50.261719 81.53125 50.289062 81.238281 50.347656 80.945312 C 50.40625 80.652344 50.492188 80.371094 50.605469 80.09375 C 50.722656 79.820312 50.859375 79.558594 51.027344 79.3125 C 51.191406 79.0625 51.378906 78.835938 51.589844 78.625 C 51.800781 78.414062 52.03125 78.226562 52.277344 78.058594 C 52.527344 77.894531 52.789062 77.753906 53.0625 77.640625 C 53.339844 77.527344 53.621094 77.441406 53.914062 77.382812 C 54.207031 77.324219 54.5 77.296875 54.800781 77.296875 C 55.097656 77.296875 55.394531 77.324219 55.683594 77.382812 C 55.976562 77.441406 56.261719 77.527344 56.535156 77.640625 C 56.8125 77.753906 57.074219 77.894531 57.320312 78.058594 C 57.570312 78.226562 57.796875 78.414062 58.007812 78.625 C 58.21875 78.835938 58.40625 79.0625 58.574219 79.3125 C 58.738281 79.558594 58.878906 79.820312 58.992188 80.09375 C 59.105469 80.371094 59.191406 80.652344 59.25 80.945312 C 59.308594 81.238281 59.335938 81.53125 59.335938 81.832031 L 59.335938 128.683594 C 59.335938 128.984375 59.308594 129.277344 59.25 129.570312 C 59.191406 129.863281 59.105469 130.144531 58.992188 130.421875 C 58.878906 130.695312 58.738281 130.957031 58.574219 131.203125 C 58.40625 131.453125 58.21875 131.679688 58.007812 131.890625 C 57.796875 132.101562 57.570312 132.289062 57.320312 132.457031 C 57.074219 132.621094 56.8125 132.761719 56.535156 132.875 C 56.261719 132.988281 55.976562 133.074219 55.683594 133.132812 C 55.394531 133.191406 55.097656 133.21875 54.800781 133.21875 Z M 54.800781 133.21875 " fill-opacity="1" fill-rule="nonzero"/><path fill="#ffffff" d="M 78.125 133.21875 C 77.828125 133.21875 77.53125 133.191406 77.238281 133.132812 C 76.945312 133.074219 76.664062 132.988281 76.386719 132.875 C 76.113281 132.761719 75.851562 132.621094 75.601562 132.457031 C 75.355469 132.289062 75.125 132.101562 74.914062 131.890625 C 74.703125 131.679688 74.515625 131.453125 74.351562 131.203125 C 74.1875 130.957031 74.046875 130.695312 73.933594 130.421875 C 73.816406 130.144531 73.730469 129.863281 73.671875 129.570312 C 73.617188 129.277344 73.585938 128.984375 73.585938 128.683594 L 73.585938 81.832031 C 73.585938 81.53125 73.617188 81.238281 73.671875 80.945312 C 73.730469 80.652344 73.816406 80.371094 73.933594 80.09375 C 74.046875 79.820312 74.1875 79.558594 74.351562 79.3125 C 74.515625 79.0625 74.703125 78.835938 74.914062 78.625 C 75.125 78.414062 75.355469 78.226562 75.601562 78.058594 C 75.851562 77.894531 76.113281 77.753906 76.386719 77.640625 C 76.664062 77.527344 76.945312 77.441406 77.238281 77.382812 C 77.53125 77.324219 77.828125 77.296875 78.125 77.296875 C 78.421875 77.296875 78.71875 77.324219 79.011719 77.382812 C 79.300781 77.441406 79.585938 77.527344 79.859375 77.640625 C 80.136719 77.753906 80.398438 77.894531 80.644531 78.058594 C 80.894531 78.226562 81.121094 78.414062 81.332031 78.625 C 81.542969 78.835938 81.730469 79.0625 81.898438 79.3125 C 82.0625 79.558594 82.203125 79.820312 82.316406 80.09375 C 82.429688 80.371094 82.515625 80.652344 82.574219 80.945312 C 82.632812 81.238281 82.664062 81.53125 82.664062 81.832031 L 82.664062 128.683594 C 82.664062 128.984375 82.632812 129.277344 82.574219 129.570312 C 82.515625 129.863281 82.429688 130.144531 82.316406 130.421875 C 82.203125 130.695312 82.0625 130.957031 81.898438 131.203125 C 81.730469 131.453125 81.542969 131.679688 81.332031 131.890625 C 81.121094 132.101562 80.894531 132.289062 80.644531 132.457031 C 80.398438 132.621094 80.136719 132.761719 79.859375 132.875 C 79.585938 132.988281 79.300781 133.074219 79.011719 133.132812 C 78.71875 133.191406 78.421875 133.21875 78.125 133.21875 Z M 78.125 133.21875 " fill-opacity="1" fill-rule="nonzero"/><path fill="#ffffff" d="M 54.800781 109.816406 L 30.886719 109.816406 C 30.585938 109.816406 30.292969 109.785156 30 109.730469 C 29.707031 109.671875 29.421875 109.585938 29.148438 109.472656 C 28.875 109.355469 28.613281 109.21875 28.363281 109.050781 C 28.117188 108.886719 27.886719 108.699219 27.675781 108.488281 C 27.464844 108.277344 27.277344 108.046875 27.113281 107.800781 C 26.945312 107.550781 26.804688 107.292969 26.691406 107.015625 C 26.578125 106.742188 26.492188 106.457031 26.433594 106.164062 C 26.375 105.875 26.347656 105.578125 26.347656 105.28125 C 26.347656 104.984375 26.375 104.6875 26.433594 104.394531 C 26.492188 104.101562 26.578125 103.820312 26.691406 103.542969 C 26.804688 103.269531 26.945312 103.007812 27.113281 102.761719 C 27.277344 102.511719 27.464844 102.285156 27.675781 102.074219 C 27.886719 101.863281 28.117188 101.675781 28.363281 101.507812 C 28.613281 101.34375 28.875 101.203125 29.148438 101.089844 C 29.421875 100.976562 29.707031 100.890625 30 100.832031 C 30.292969 100.773438 30.585938 100.746094 30.886719 100.746094 L 54.800781 100.746094 C 55.097656 100.746094 55.394531 100.773438 55.683594 100.832031 C 55.976562 100.890625 56.261719 100.976562 56.535156 101.089844 C 56.8125 101.203125 57.074219 101.34375 57.320312 101.507812 C 57.570312 101.675781 57.796875 101.863281 58.007812 102.074219 C 58.21875 102.285156 58.40625 102.511719 58.574219 102.761719 C 58.738281 103.007812 58.878906 103.269531 58.992188 103.542969 C 59.105469 103.820312 59.191406 104.101562 59.25 104.394531 C 59.308594 104.6875 59.335938 104.984375 59.335938 105.28125 C 59.335938 105.578125 59.308594 105.875 59.25 106.164062 C 59.191406 106.457031 59.105469 106.742188 58.992188 107.015625 C 58.878906 107.292969 58.738281 107.550781 58.574219 107.800781 C 58.40625 108.046875 58.21875 108.277344 58.007812 108.488281 C 57.796875 108.699219 57.570312 108.886719 57.320312 109.050781 C 57.074219 109.21875 56.8125 109.355469 56.535156 109.472656 C 56.261719 109.585938 55.976562 109.671875 55.683594 109.730469 C 55.394531 109.785156 55.097656 109.816406 54.800781 109.816406 Z M 54.800781 109.816406 " fill-opacity="1" fill-rule="nonzero"/><path fill="#ffffff" d="M 101.992188 109.816406 L 78.125 109.816406 C 77.828125 109.816406 77.53125 109.785156 77.238281 109.730469 C 76.945312 109.671875 76.664062 109.585938 76.386719 109.472656 C 76.113281 109.355469 75.851562 109.21875 75.601562 109.050781 C 75.355469 108.886719 75.125 108.699219 74.914062 108.488281 C 74.703125 108.277344 74.515625 108.046875 74.351562 107.800781 C 74.1875 107.550781 74.046875 107.292969 73.933594 107.015625 C 73.816406 106.742188 73.730469 106.457031 73.671875 106.164062 C 73.617188 105.875 73.585938 105.578125 73.585938 105.28125 C 73.585938 104.984375 73.617188 104.6875 73.671875 104.394531 C 73.730469 104.101562 73.816406 103.820312 73.933594 103.542969 C 74.046875 103.269531 74.1875 103.007812 74.351562 102.761719 C 74.515625 102.511719 74.703125 102.285156 74.914062 102.074219 C 75.125 101.863281 75.355469 101.675781 75.601562 101.507812 C 75.851562 101.34375 76.113281 101.203125 76.386719 101.089844 C 76.664062 100.976562 76.945312 100.890625 77.238281 100.832031 C 77.53125 100.773438 77.828125 100.746094 78.125 100.746094 L 101.992188 100.746094 C 102.292969 100.746094 102.585938 100.773438 102.878906 100.832031 C 103.171875 100.890625 103.457031 100.976562 103.730469 101.089844 C 104.003906 101.203125 104.265625 101.34375 104.515625 101.507812 C 104.761719 101.675781 104.992188 101.863281 105.203125 102.074219 C 105.414062 102.285156 105.601562 102.511719 105.765625 102.761719 C 105.933594 103.007812 106.074219 103.269531 106.1875 103.542969 C 106.300781 103.820312 106.386719 104.101562 106.445312 104.394531 C 106.503906 104.6875 106.53125 104.984375 106.53125 105.28125 C 106.53125 105.578125 106.503906 105.875 106.445312 106.164062 C 106.386719 106.457031 106.300781 106.742188 106.1875 107.015625 C 106.074219 107.292969 105.933594 107.550781 105.765625 107.800781 C 105.601562 108.046875 105.414062 108.277344 105.203125 108.488281 C 104.992188 108.699219 104.761719 108.886719 104.515625 109.050781 C 104.265625 109.21875 104.003906 109.355469 103.730469 109.472656 C 103.457031 109.585938 103.171875 109.671875 102.878906 109.730469 C 102.585938 109.785156 102.292969 109.816406 101.992188 109.816406 Z M 101.992188 109.816406 " fill-opacity="1" fill-rule="nonzero"/><path fill="#ffffff" d="M 34.378906 177.851562 C 32.066406 177.898438 29.902344 177.355469 27.890625 176.21875 L 27.117188 175.675781 C 27.011719 175.355469 27.011719 175.039062 27.117188 174.722656 C 27.125 174.25 27.292969 173.839844 27.617188 173.496094 C 27.992188 173.15625 28.429688 172.992188 28.933594 173 L 29.660156 173 C 31.089844 173.699219 32.605469 174.046875 34.199219 174.042969 C 35.566406 174.121094 36.867188 173.863281 38.101562 173.269531 C 38.5 173.03125 38.804688 172.703125 39.011719 172.28125 C 39.21875 171.863281 39.292969 171.421875 39.234375 170.957031 C 39.253906 170.554688 39.179688 170.167969 39.011719 169.796875 C 38.84375 169.429688 38.601562 169.121094 38.28125 168.871094 C 37.410156 168.257812 36.441406 167.984375 35.378906 168.054688 C 33.898438 168.050781 32.507812 168.398438 31.203125 169.097656 C 30.800781 169.359375 30.363281 169.492188 29.886719 169.507812 C 29.246094 169.527344 28.671875 169.34375 28.164062 168.960938 C 27.570312 168.671875 27.222656 168.203125 27.117188 167.554688 C 27.09375 167.296875 27.09375 167.042969 27.117188 166.785156 L 28.433594 159.800781 C 28.480469 159.269531 28.707031 158.828125 29.117188 158.484375 C 29.527344 158.113281 30.011719 157.933594 30.566406 157.941406 L 39.871094 157.941406 C 40.359375 157.9375 40.78125 158.105469 41.140625 158.4375 C 41.546875 158.765625 41.742188 159.1875 41.730469 159.710938 C 41.726562 160.222656 41.53125 160.644531 41.140625 160.980469 C 40.777344 161.300781 40.355469 161.449219 39.871094 161.433594 L 32.109375 161.433594 L 31.65625 165.378906 C 32.976562 164.914062 34.339844 164.6875 35.742188 164.699219 C 37.121094 164.660156 38.4375 164.929688 39.6875 165.515625 C 40.78125 166.039062 41.625 166.824219 42.230469 167.875 C 42.832031 168.925781 43.121094 170.0625 43.09375 171.273438 C 43.105469 172.210938 42.90625 173.101562 42.488281 173.941406 C 42.074219 174.78125 41.488281 175.480469 40.730469 176.039062 C 39.816406 176.710938 38.8125 177.207031 37.71875 177.519531 C 36.625 177.832031 35.511719 177.941406 34.378906 177.851562 Z M 34.378906 177.851562 " fill-opacity="1" fill-rule="nonzero"/><path fill="#ffffff" d="M 56.480469 177.714844 C 55.960938 177.726562 55.507812 177.558594 55.117188 177.21875 C 54.738281 176.859375 54.539062 176.421875 54.527344 175.902344 L 54.527344 172.953125 L 46.359375 172.953125 C 45.746094 172.980469 45.21875 172.785156 44.769531 172.363281 C 44.277344 171.96875 44.039062 171.453125 44.046875 170.820312 C 43.996094 170.226562 44.164062 169.695312 44.542969 169.234375 L 53.621094 158.664062 C 53.832031 158.417969 54.074219 158.207031 54.347656 158.03125 C 54.710938 157.957031 55.070312 157.957031 55.433594 158.03125 C 56.257812 157.914062 57 158.109375 57.660156 158.621094 C 58.082031 159.046875 58.296875 159.5625 58.292969 160.164062 L 58.292969 169.734375 L 59.882812 169.734375 C 60.371094 169.730469 60.792969 169.898438 61.152344 170.230469 C 61.53125 170.550781 61.710938 170.960938 61.699219 171.457031 C 61.695312 171.957031 61.496094 172.367188 61.109375 172.679688 C 60.761719 173 60.351562 173.152344 59.882812 173.132812 L 58.429688 173.132812 L 58.429688 176.082031 C 58.441406 176.613281 58.246094 177.054688 57.839844 177.398438 C 57.425781 177.671875 56.972656 177.78125 56.480469 177.714844 Z M 54.347656 169.550781 L 54.347656 162.882812 L 48.671875 169.550781 Z M 54.347656 169.550781 " fill-opacity="1" fill-rule="nonzero"/><path fill="#ffffff" d="M 67.234375 177.578125 C 66.742188 177.589844 66.316406 177.425781 65.964844 177.082031 C 65.585938 176.761719 65.402344 176.351562 65.417969 175.855469 C 65.414062 175.351562 65.597656 174.929688 65.964844 174.585938 C 66.316406 174.242188 66.742188 174.078125 67.234375 174.085938 L 70.046875 174.085938 L 70.046875 162.339844 L 67.960938 163.472656 C 67.640625 163.542969 67.324219 163.542969 67.007812 163.472656 C 66.496094 163.496094 66.058594 163.332031 65.691406 162.976562 C 65.304688 162.640625 65.121094 162.214844 65.144531 161.703125 C 65.144531 161.339844 65.246094 161.007812 65.453125 160.707031 C 65.664062 160.410156 65.9375 160.195312 66.28125 160.070312 L 70.183594 158.210938 C 70.523438 158.035156 70.886719 157.945312 71.273438 157.941406 C 72.03125 157.828125 72.710938 158.011719 73.3125 158.484375 C 73.703125 158.855469 73.898438 159.308594 73.902344 159.84375 L 73.902344 174.085938 L 76.128906 174.085938 C 76.628906 174.089844 77.066406 174.253906 77.445312 174.585938 C 77.628906 174.746094 77.773438 174.9375 77.871094 175.15625 C 77.972656 175.378906 78.023438 175.613281 78.023438 175.855469 C 78.023438 176.101562 77.972656 176.332031 77.871094 176.554688 C 77.773438 176.777344 77.628906 176.964844 77.445312 177.125 C 77.0625 177.445312 76.625 177.597656 76.128906 177.578125 Z M 67.234375 177.578125 " fill-opacity="1" fill-rule="nonzero"/><path fill="#ffffff" d="M 83.707031 177.578125 C 83.136719 177.59375 82.636719 177.414062 82.207031 177.035156 C 81.734375 176.667969 81.507812 176.183594 81.527344 175.585938 C 81.527344 174.492188 81.875 173.523438 82.570312 172.679688 C 83.207031 171.828125 83.960938 171.101562 84.839844 170.503906 C 85.703125 169.914062 86.792969 169.1875 88.199219 168.371094 L 90.964844 166.695312 C 91.558594 166.28125 92.089844 165.796875 92.554688 165.242188 C 92.910156 164.839844 93.089844 164.371094 93.097656 163.835938 C 93.128906 163.070312 92.859375 162.4375 92.28125 161.929688 C 91.328125 161.375 90.300781 161.132812 89.195312 161.207031 C 87.628906 161.222656 86.113281 161.523438 84.660156 162.113281 L 83.84375 162.113281 C 83.394531 162.109375 83 161.957031 82.664062 161.660156 C 82.296875 161.351562 82.117188 160.957031 82.117188 160.480469 C 82.097656 160.167969 82.164062 159.871094 82.308594 159.59375 C 82.457031 159.316406 82.664062 159.097656 82.933594 158.9375 C 85.070312 157.96875 87.308594 157.5 89.652344 157.53125 C 90.914062 157.507812 92.125 157.75 93.28125 158.257812 C 94.359375 158.699219 95.238281 159.394531 95.914062 160.34375 C 96.601562 161.273438 96.933594 162.316406 96.910156 163.472656 C 96.914062 164.695312 96.539062 165.785156 95.777344 166.738281 C 95.082031 167.695312 94.25 168.511719 93.28125 169.1875 C 92.328125 169.867188 91.101562 170.683594 89.605469 171.546875 C 88.109375 172.410156 87.292969 173 86.609375 173.496094 L 86.109375 173.90625 L 94.871094 173.90625 C 95.371094 173.90625 95.808594 174.074219 96.183594 174.40625 C 96.355469 174.570312 96.488281 174.765625 96.582031 174.984375 C 96.675781 175.207031 96.722656 175.433594 96.722656 175.675781 C 96.722656 175.914062 96.675781 176.144531 96.582031 176.363281 C 96.488281 176.585938 96.355469 176.777344 96.183594 176.945312 C 95.804688 177.261719 95.367188 177.414062 94.871094 177.398438 Z M 83.707031 177.578125 " fill-opacity="1" fill-rule="nonzero"/><path fill="#ffffff" d="M 119.875 177.714844 C 119.355469 177.726562 118.902344 177.558594 118.511719 177.21875 C 118.128906 176.859375 117.933594 176.421875 117.921875 175.902344 C 117.921875 175.570312 118.011719 175.269531 118.195312 174.996094 L 125.636719 161.386719 L 116.199219 161.386719 C 115.695312 161.386719 115.257812 161.21875 114.882812 160.886719 C 114.503906 160.550781 114.304688 160.125 114.292969 159.617188 C 114.292969 159.105469 114.492188 158.679688 114.882812 158.347656 C 115.242188 157.980469 115.679688 157.796875 116.199219 157.804688 L 127.996094 157.804688 C 128.582031 157.785156 129.09375 157.96875 129.539062 158.347656 C 129.996094 158.742188 130.226562 159.242188 130.21875 159.84375 C 130.222656 160.351562 130.117188 160.835938 129.902344 161.296875 L 121.644531 176.582031 C 121.453125 176.894531 121.195312 177.136719 120.871094 177.308594 C 120.574219 177.53125 120.242188 177.667969 119.875 177.714844 Z M 119.875 177.714844 " fill-opacity="1" fill-rule="nonzero"/><path fill="#ffffff" d="M 139.976562 177.851562 C 137.664062 177.898438 135.5 177.355469 133.488281 176.21875 L 132.941406 175.71875 C 132.738281 175.433594 132.648438 175.117188 132.671875 174.765625 C 132.675781 174.292969 132.84375 173.886719 133.167969 173.542969 C 133.542969 173.203125 133.980469 173.035156 134.484375 173.042969 L 135.210938 173.042969 C 136.640625 173.746094 138.15625 174.09375 139.75 174.085938 C 141.117188 174.164062 142.417969 173.90625 143.652344 173.316406 C 144.042969 173.070312 144.34375 172.738281 144.546875 172.320312 C 144.753906 171.902344 144.832031 171.464844 144.785156 171.003906 C 144.808594 170.59375 144.730469 170.203125 144.554688 169.832031 C 144.378906 169.460938 144.121094 169.15625 143.789062 168.917969 C 142.929688 168.3125 141.976562 168.042969 140.929688 168.101562 C 139.449219 168.09375 138.058594 168.441406 136.753906 169.144531 C 136.355469 169.402344 135.914062 169.539062 135.4375 169.550781 C 134.800781 169.574219 134.226562 169.390625 133.714844 169.007812 C 133.160156 168.621094 132.886719 168.09375 132.898438 167.417969 C 132.871094 167.164062 132.871094 166.90625 132.898438 166.648438 L 134.167969 159.664062 C 134.230469 159.125 134.472656 158.6875 134.894531 158.347656 C 135.304688 157.96875 135.789062 157.785156 136.34375 157.804688 L 145.421875 157.804688 C 145.925781 157.796875 146.363281 157.960938 146.738281 158.304688 C 147.117188 158.640625 147.3125 159.066406 147.328125 159.574219 C 147.324219 160.085938 147.128906 160.511719 146.738281 160.84375 C 146.359375 161.171875 145.921875 161.320312 145.421875 161.296875 L 137.707031 161.296875 L 137.070312 165.242188 C 138.394531 164.777344 139.753906 164.550781 141.15625 164.5625 C 142.535156 164.535156 143.851562 164.808594 145.105469 165.378906 C 146.171875 165.925781 147.019531 166.710938 147.644531 167.738281 C 148.25 168.789062 148.535156 169.925781 148.507812 171.140625 C 148.539062 172.066406 148.355469 172.945312 147.964844 173.785156 C 147.574219 174.625 147.011719 175.332031 146.285156 175.902344 C 145.382812 176.59375 144.390625 177.109375 143.304688 177.445312 C 142.21875 177.78125 141.109375 177.917969 139.976562 177.851562 Z M 139.976562 177.851562 " fill-opacity="1" fill-rule="nonzero"/><path fill="#ffffff" d="M 158.71875 177.851562 C 157.5 177.917969 156.335938 177.703125 155.222656 177.207031 C 154.113281 176.710938 153.175781 175.988281 152.410156 175.039062 C 151.699219 173.957031 151.15625 172.800781 150.785156 171.558594 C 150.414062 170.320312 150.230469 169.054688 150.230469 167.761719 C 150.230469 166.464844 150.414062 165.199219 150.785156 163.960938 C 151.15625 162.722656 151.699219 161.5625 152.410156 160.480469 C 152.8125 160.042969 153.253906 159.65625 153.734375 159.308594 C 154.21875 158.964844 154.730469 158.675781 155.273438 158.4375 C 155.816406 158.199219 156.378906 158.019531 156.957031 157.898438 C 157.539062 157.777344 158.125 157.714844 158.71875 157.714844 C 159.308594 157.714844 159.898438 157.777344 160.476562 157.898438 C 161.058594 158.019531 161.617188 158.199219 162.160156 158.4375 C 162.703125 158.675781 163.214844 158.964844 163.699219 159.308594 C 164.179688 159.65625 164.625 160.042969 165.023438 160.480469 C 165.804688 161.574219 166.375 162.765625 166.734375 164.058594 C 167.09375 165.355469 167.21875 166.671875 167.113281 168.007812 C 167.183594 169.308594 167.03125 170.582031 166.660156 171.828125 C 166.285156 173.074219 165.710938 174.222656 164.933594 175.265625 C 164.15625 176.160156 163.222656 176.832031 162.128906 177.289062 C 161.035156 177.742188 159.898438 177.929688 158.71875 177.851562 Z M 158.71875 161.207031 C 158.054688 161.160156 157.421875 161.285156 156.820312 161.578125 C 156.222656 161.867188 155.734375 162.289062 155.359375 162.839844 C 154.40625 164.433594 154.011719 166.15625 154.179688 168.007812 C 154.121094 169.621094 154.484375 171.132812 155.269531 172.546875 C 155.644531 173.09375 156.132812 173.515625 156.730469 173.808594 C 157.332031 174.097656 157.960938 174.222656 158.625 174.179688 C 159.292969 174.226562 159.925781 174.105469 160.527344 173.8125 C 161.125 173.519531 161.613281 173.097656 161.984375 172.546875 C 162.386719 171.78125 162.691406 170.984375 162.898438 170.148438 C 163.105469 169.3125 163.207031 168.460938 163.207031 167.601562 C 163.207031 166.738281 163.105469 165.890625 162.898438 165.054688 C 162.691406 164.21875 162.386719 163.417969 161.984375 162.65625 C 161.601562 162.152344 161.117188 161.769531 160.535156 161.511719 C 159.957031 161.253906 159.351562 161.152344 158.71875 161.207031 Z M 158.71875 161.207031 " fill-opacity="1" fill-rule="nonzero"/><path fill="#ffffff" d="M 172.832031 177.578125 C 172.335938 177.589844 171.914062 177.425781 171.558594 177.082031 C 171.179688 176.761719 171 176.351562 171.015625 175.855469 C 171.015625 175.367188 171.179688 174.945312 171.515625 174.585938 C 171.890625 174.253906 172.328125 174.089844 172.832031 174.085938 L 175.644531 174.085938 L 175.644531 162.339844 L 173.601562 163.246094 C 173.285156 163.316406 172.964844 163.316406 172.648438 163.246094 C 172.136719 163.269531 171.699219 163.105469 171.332031 162.746094 C 170.945312 162.414062 170.765625 161.988281 170.789062 161.476562 C 170.785156 161.113281 170.886719 160.78125 171.097656 160.480469 C 171.304688 160.183594 171.578125 159.96875 171.921875 159.84375 L 175.824219 157.984375 C 176.167969 157.808594 176.53125 157.71875 176.914062 157.714844 C 178.050781 157.714844 178.546875 157.714844 178.910156 158.257812 C 179.335938 158.613281 179.546875 159.066406 179.546875 159.617188 L 179.546875 173.859375 L 181.769531 173.859375 C 182.269531 173.863281 182.710938 174.027344 183.085938 174.359375 C 183.257812 174.527344 183.390625 174.71875 183.484375 174.941406 C 183.578125 175.160156 183.625 175.390625 183.625 175.628906 C 183.625 175.867188 183.578125 176.097656 183.484375 176.320312 C 183.390625 176.539062 183.257812 176.734375 183.085938 176.898438 C 182.707031 177.21875 182.265625 177.367188 181.769531 177.351562 Z M 172.832031 177.578125 " fill-opacity="1" fill-rule="nonzero"/><path fill="#ffffff" d="M 204.097656 177.578125 C 203.511719 177.601562 202.996094 177.421875 202.554688 177.035156 C 202.121094 176.648438 201.910156 176.164062 201.917969 175.585938 C 201.929688 174.507812 202.265625 173.539062 202.917969 172.679688 C 203.578125 171.839844 204.347656 171.113281 205.230469 170.503906 C 206.046875 169.914062 207.183594 169.1875 208.542969 168.371094 L 211.355469 166.695312 C 211.949219 166.28125 212.480469 165.796875 212.945312 165.242188 C 213.300781 164.839844 213.480469 164.371094 213.488281 163.835938 C 213.507812 163.46875 213.4375 163.117188 213.285156 162.78125 C 213.132812 162.445312 212.914062 162.164062 212.628906 161.929688 C 211.675781 161.363281 210.648438 161.121094 209.542969 161.207031 C 207.972656 161.230469 206.460938 161.535156 205.003906 162.113281 L 204.234375 162.113281 C 203.78125 162.109375 203.390625 161.957031 203.050781 161.660156 C 202.6875 161.351562 202.507812 160.957031 202.507812 160.480469 C 202.507812 160.148438 202.597656 159.839844 202.777344 159.558594 C 202.957031 159.28125 203.203125 159.074219 203.507812 158.9375 C 205.625 157.976562 207.847656 157.507812 210.175781 157.53125 C 211.441406 157.507812 212.648438 157.75 213.808594 158.257812 C 214.898438 158.699219 215.792969 159.394531 216.484375 160.34375 C 217.152344 161.28125 217.488281 162.324219 217.484375 163.472656 C 217.488281 164.695312 217.109375 165.785156 216.347656 166.738281 C 215.640625 167.683594 214.808594 168.5 213.851562 169.1875 C 212.898438 169.867188 211.675781 170.683594 210.175781 171.546875 C 208.679688 172.410156 207.816406 173 207.183594 173.496094 L 206.683594 173.90625 L 215.441406 173.90625 C 215.941406 173.90625 216.382812 174.074219 216.757812 174.40625 C 217.125 174.75 217.304688 175.171875 217.300781 175.675781 C 217.3125 176.195312 217.117188 176.617188 216.710938 176.945312 C 216.347656 177.265625 215.925781 177.417969 215.441406 177.398438 Z M 204.097656 177.578125 " fill-opacity="1" fill-rule="nonzero"/><path fill="#ffffff" d="M 227.285156 177.851562 C 225.132812 177.859375 223.046875 177.496094 221.023438 176.761719 C 220.703125 176.632812 220.429688 176.4375 220.207031 176.171875 C 219.980469 175.878906 219.875 175.546875 219.886719 175.175781 C 219.890625 174.699219 220.054688 174.292969 220.386719 173.949219 C 220.738281 173.597656 221.160156 173.429688 221.65625 173.453125 L 222.339844 173.453125 C 223.808594 173.960938 225.320312 174.203125 226.875 174.179688 C 228.113281 174.210938 229.308594 174 230.460938 173.542969 C 230.820312 173.421875 231.109375 173.207031 231.328125 172.898438 C 231.546875 172.589844 231.652344 172.242188 231.640625 171.863281 C 231.640625 170.097656 229.691406 169.1875 225.832031 169.1875 C 225.191406 169.257812 224.613281 169.09375 224.109375 168.691406 C 223.742188 168.363281 223.5625 167.953125 223.5625 167.464844 C 223.558594 166.960938 223.742188 166.539062 224.109375 166.195312 C 224.46875 165.871094 224.894531 165.703125 225.378906 165.695312 C 226.875 165.800781 228.3125 165.558594 229.691406 164.96875 C 230.0625 164.820312 230.359375 164.582031 230.582031 164.25 C 230.804688 163.921875 230.917969 163.554688 230.914062 163.15625 C 230.921875 162.851562 230.847656 162.566406 230.691406 162.304688 C 230.539062 162.042969 230.324219 161.84375 230.054688 161.703125 C 229.015625 161.207031 227.925781 161.039062 226.785156 161.207031 C 225.308594 161.191406 223.886719 161.464844 222.519531 162.023438 L 221.839844 162.023438 C 221.410156 162.027344 221.03125 161.890625 220.707031 161.613281 C 220.605469 161.527344 220.519531 161.429688 220.445312 161.320312 C 220.367188 161.214844 220.308594 161.097656 220.261719 160.972656 C 220.214844 160.851562 220.183594 160.722656 220.171875 160.59375 C 220.15625 160.460938 220.15625 160.332031 220.175781 160.199219 C 220.195312 160.070312 220.226562 159.945312 220.277344 159.820312 C 220.328125 159.699219 220.390625 159.585938 220.46875 159.480469 C 220.546875 159.371094 220.636719 159.277344 220.738281 159.195312 C 220.839844 159.109375 220.949219 159.039062 221.066406 158.984375 C 222.96875 158.042969 224.980469 157.574219 227.105469 157.578125 C 229.0625 157.480469 230.894531 157.917969 232.59375 158.890625 C 233.277344 159.332031 233.808594 159.910156 234.179688 160.628906 C 234.554688 161.351562 234.71875 162.117188 234.683594 162.929688 C 234.738281 164.179688 234.347656 165.269531 233.503906 166.195312 C 233.136719 166.589844 232.726562 166.941406 232.277344 167.238281 C 232.875 167.5 233.421875 167.847656 233.910156 168.28125 C 234.433594 168.75 234.828125 169.3125 235.09375 169.964844 C 235.355469 170.621094 235.460938 171.296875 235.40625 172 C 235.433594 172.429688 235.398438 172.855469 235.304688 173.277344 C 235.210938 173.699219 235.058594 174.097656 234.847656 174.476562 C 234.640625 174.855469 234.382812 175.195312 234.078125 175.5 C 233.769531 175.804688 233.425781 176.058594 233.046875 176.265625 C 231.28125 177.355469 229.363281 177.886719 227.285156 177.851562 Z M 227.285156 177.851562 " fill-opacity="1" fill-rule="nonzero"/><path fill="#ffffff" d="M 249.476562 177.714844 C 248.972656 177.714844 248.535156 177.546875 248.160156 177.21875 C 247.753906 176.871094 247.558594 176.433594 247.570312 175.902344 L 247.570312 172.953125 L 239.355469 172.953125 C 238.75 172.964844 238.21875 172.769531 237.769531 172.363281 C 237.296875 171.957031 237.054688 171.445312 237.042969 170.820312 C 236.996094 170.226562 237.160156 169.695312 237.539062 169.234375 L 246.617188 158.664062 C 246.84375 158.394531 247.117188 158.183594 247.433594 158.03125 C 247.796875 157.964844 248.160156 157.964844 248.523438 158.03125 C 249.746094 158.03125 250.335938 158.03125 250.746094 158.621094 C 251.207031 159.03125 251.433594 159.546875 251.425781 160.164062 L 251.425781 169.734375 L 252.96875 169.734375 C 253.457031 169.730469 253.882812 169.898438 254.238281 170.230469 C 254.417969 170.386719 254.550781 170.570312 254.648438 170.785156 C 254.746094 171 254.792969 171.222656 254.792969 171.457031 C 254.792969 171.691406 254.746094 171.914062 254.648438 172.128906 C 254.550781 172.34375 254.417969 172.527344 254.238281 172.679688 C 253.878906 173 253.453125 173.152344 252.96875 173.132812 L 251.425781 173.132812 L 251.425781 176.082031 C 251.421875 176.621094 251.207031 177.058594 250.792969 177.398438 C 250.390625 177.664062 249.953125 177.769531 249.476562 177.714844 Z M 247.570312 169.550781 L 247.570312 162.882812 L 241.851562 169.550781 Z M 247.570312 169.550781 " fill-opacity="1" fill-rule="nonzero"/><path fill="#ffffff" d="M 263.722656 177.851562 C 261.410156 177.898438 259.25 177.355469 257.234375 176.21875 L 256.734375 175.71875 C 256.535156 175.433594 256.441406 175.117188 256.464844 174.765625 C 256.449219 174.285156 256.617188 173.878906 256.960938 173.542969 C 257.316406 173.199219 257.742188 173.035156 258.234375 173.042969 L 258.960938 173.042969 C 260.390625 173.746094 261.902344 174.09375 263.496094 174.085938 C 264.863281 174.164062 266.164062 173.90625 267.398438 173.316406 C 267.800781 173.078125 268.105469 172.746094 268.3125 172.328125 C 268.515625 171.910156 268.589844 171.464844 268.535156 171.003906 C 268.554688 170.597656 268.480469 170.210938 268.3125 169.84375 C 268.144531 169.476562 267.902344 169.167969 267.582031 168.917969 C 266.710938 168.304688 265.742188 168.03125 264.675781 168.101562 C 263.199219 168.09375 261.804688 168.441406 260.503906 169.144531 C 260.101562 169.402344 259.664062 169.539062 259.1875 169.550781 C 258.550781 169.566406 257.976562 169.382812 257.460938 169.007812 C 256.933594 168.609375 256.660156 168.082031 256.644531 167.417969 C 256.621094 167.164062 256.621094 166.90625 256.644531 166.648438 L 257.960938 159.664062 C 258.007812 159.195312 258.207031 158.804688 258.550781 158.484375 C 258.945312 158.105469 259.414062 157.925781 259.957031 157.941406 L 269.261719 157.941406 C 269.761719 157.941406 270.199219 158.109375 270.578125 158.4375 C 270.945312 158.78125 271.125 159.207031 271.121094 159.710938 C 271.140625 160.234375 270.945312 160.65625 270.53125 160.980469 C 270.167969 161.300781 269.746094 161.449219 269.261719 161.433594 L 261.5 161.433594 L 260.820312 165.378906 C 262.140625 164.914062 263.503906 164.6875 264.902344 164.699219 C 266.285156 164.660156 267.601562 164.929688 268.851562 165.515625 C 269.941406 166.039062 270.789062 166.824219 271.394531 167.875 C 272.011719 168.921875 272.3125 170.058594 272.300781 171.273438 C 272.324219 172.199219 272.140625 173.078125 271.75 173.917969 C 271.359375 174.753906 270.800781 175.460938 270.078125 176.039062 C 269.160156 176.707031 268.152344 177.195312 267.0625 177.507812 C 265.96875 177.820312 264.855469 177.933594 263.722656 177.851562 Z M 263.722656 177.851562 " fill-opacity="1" fill-rule="nonzero"/><path fill="#ffffff" d="M 249.15625 125.601562 C 248.367188 125.601562 247.578125 125.5625 246.792969 125.484375 C 246.003906 125.40625 245.222656 125.289062 244.449219 125.136719 C 243.671875 124.984375 242.90625 124.789062 242.148438 124.5625 C 241.394531 124.332031 240.648438 124.066406 239.917969 123.761719 C 239.1875 123.460938 238.476562 123.125 237.777344 122.75 C 237.082031 122.378906 236.402344 121.972656 235.746094 121.535156 C 235.089844 121.09375 234.453125 120.625 233.84375 120.125 C 233.230469 119.621094 232.644531 119.089844 232.085938 118.53125 C 231.527344 117.972656 230.996094 117.390625 230.496094 116.777344 C 229.996094 116.167969 229.523438 115.535156 229.085938 114.875 C 228.644531 114.21875 228.238281 113.542969 227.867188 112.84375 C 227.492188 112.148438 227.15625 111.433594 226.855469 110.703125 C 226.550781 109.972656 226.285156 109.230469 226.054688 108.476562 C 225.824219 107.71875 225.632812 106.953125 225.480469 106.179688 C 225.324219 105.402344 225.210938 104.621094 225.132812 103.835938 C 225.054688 103.050781 225.015625 102.261719 225.015625 101.46875 C 225.015625 100.679688 225.054688 99.890625 225.132812 99.105469 C 225.210938 98.320312 225.324219 97.539062 225.480469 96.761719 C 225.632812 95.988281 225.824219 95.222656 226.054688 94.464844 C 226.285156 93.710938 226.550781 92.964844 226.855469 92.234375 C 227.15625 91.507812 227.492188 90.792969 227.867188 90.09375 C 228.238281 89.398438 228.644531 88.722656 229.085938 88.066406 C 229.523438 87.40625 229.996094 86.773438 230.496094 86.164062 C 230.996094 85.550781 231.527344 84.964844 232.085938 84.40625 C 232.644531 83.847656 233.230469 83.320312 233.84375 82.816406 C 234.453125 82.316406 235.089844 81.847656 235.746094 81.40625 C 236.402344 80.96875 237.082031 80.5625 237.777344 80.191406 C 238.476562 79.816406 239.1875 79.480469 239.917969 79.175781 C 240.648438 78.875 241.394531 78.609375 242.148438 78.378906 C 242.90625 78.148438 243.671875 77.957031 244.449219 77.804688 C 245.222656 77.648438 246.003906 77.535156 246.792969 77.457031 C 247.578125 77.378906 248.367188 77.339844 249.15625 77.339844 C 249.949219 77.339844 250.738281 77.378906 251.523438 77.457031 C 252.3125 77.535156 253.09375 77.648438 253.867188 77.804688 C 254.644531 77.957031 255.410156 78.148438 256.164062 78.378906 C 256.921875 78.609375 257.664062 78.875 258.394531 79.175781 C 259.125 79.480469 259.839844 79.816406 260.539062 80.191406 C 261.234375 80.5625 261.914062 80.96875 262.570312 81.40625 C 263.226562 81.847656 263.863281 82.316406 264.472656 82.816406 C 265.085938 83.320312 265.667969 83.847656 266.226562 84.40625 C 266.789062 84.964844 267.316406 85.550781 267.820312 86.164062 C 268.320312 86.773438 268.792969 87.40625 269.230469 88.066406 C 269.671875 88.722656 270.074219 89.398438 270.449219 90.09375 C 270.820312 90.792969 271.160156 91.507812 271.460938 92.234375 C 271.765625 92.964844 272.03125 93.710938 272.257812 94.464844 C 272.488281 95.222656 272.679688 95.988281 272.835938 96.761719 C 272.988281 97.539062 273.105469 98.320312 273.183594 99.105469 C 273.261719 99.890625 273.300781 100.679688 273.300781 101.46875 C 273.296875 102.261719 273.257812 103.046875 273.179688 103.835938 C 273.101562 104.621094 272.984375 105.398438 272.828125 106.175781 C 272.671875 106.949219 272.480469 107.714844 272.25 108.46875 C 272.019531 109.226562 271.753906 109.96875 271.449219 110.699219 C 271.144531 111.425781 270.808594 112.140625 270.433594 112.835938 C 270.0625 113.53125 269.65625 114.210938 269.21875 114.867188 C 268.777344 115.523438 268.308594 116.15625 267.804688 116.765625 C 267.304688 117.375 266.773438 117.960938 266.214844 118.519531 C 265.65625 119.078125 265.070312 119.609375 264.460938 120.109375 C 263.851562 120.609375 263.214844 121.082031 262.558594 121.519531 C 261.902344 121.960938 261.226562 122.363281 260.527344 122.738281 C 259.832031 123.109375 259.117188 123.449219 258.390625 123.75 C 257.660156 124.054688 256.917969 124.320312 256.160156 124.550781 C 255.40625 124.78125 254.640625 124.972656 253.863281 125.128906 C 253.089844 125.285156 252.308594 125.402344 251.523438 125.480469 C 250.734375 125.558594 249.949219 125.597656 249.15625 125.601562 Z M 249.15625 86.410156 C 248.167969 86.410156 247.1875 86.507812 246.21875 86.703125 C 245.25 86.894531 244.304688 87.179688 243.390625 87.558594 C 242.476562 87.9375 241.609375 88.398438 240.789062 88.949219 C 239.964844 89.5 239.203125 90.125 238.503906 90.824219 C 237.804688 91.523438 237.179688 92.28125 236.632812 93.105469 C 236.082031 93.925781 235.617188 94.792969 235.238281 95.707031 C 234.859375 96.621094 234.574219 97.5625 234.382812 98.53125 C 234.1875 99.503906 234.09375 100.480469 234.09375 101.46875 C 234.09375 102.460938 234.1875 103.4375 234.382812 104.40625 C 234.574219 105.378906 234.859375 106.320312 235.238281 107.234375 C 235.617188 108.148438 236.082031 109.015625 236.632812 109.835938 C 237.179688 110.660156 237.804688 111.417969 238.503906 112.117188 C 239.203125 112.816406 239.964844 113.441406 240.789062 113.992188 C 241.609375 114.539062 242.476562 115.003906 243.390625 115.382812 C 244.304688 115.761719 245.25 116.046875 246.21875 116.238281 C 247.1875 116.433594 248.167969 116.527344 249.15625 116.527344 C 250.148438 116.527344 251.125 116.433594 252.097656 116.238281 C 253.066406 116.046875 254.007812 115.761719 254.921875 115.382812 C 255.835938 115.003906 256.707031 114.539062 257.527344 113.992188 C 258.351562 113.441406 259.113281 112.816406 259.8125 112.117188 C 260.511719 111.417969 261.136719 110.660156 261.683594 109.835938 C 262.234375 109.015625 262.699219 108.148438 263.078125 107.234375 C 263.457031 106.320312 263.742188 105.378906 263.933594 104.40625 C 264.128906 103.4375 264.222656 102.460938 264.222656 101.46875 C 264.222656 100.480469 264.128906 99.5 263.933594 98.53125 C 263.742188 97.558594 263.457031 96.617188 263.078125 95.699219 C 262.699219 94.785156 262.234375 93.917969 261.6875 93.09375 C 261.136719 92.269531 260.511719 91.507812 259.8125 90.804688 C 259.113281 90.105469 258.355469 89.480469 257.53125 88.925781 C 256.707031 88.375 255.839844 87.910156 254.925781 87.527344 C 254.011719 87.148438 253.070312 86.859375 252.097656 86.664062 C 251.128906 86.46875 250.148438 86.371094 249.15625 86.367188 Z M 249.15625 86.410156 " fill-opacity="1" fill-rule="nonzero"/></svg>