<svg xmlns="http://www.w3.org/2000/svg" xmlns:xlink="http://www.w3.org/1999/xlink" width="400" zoomAndPan="magnify" viewBox="0 0 300 299.999988" height="400" preserveAspectRatio="xMidYMid meet" version="1.0"><defs><clipPath id="4ff59579e8"><path d="M 133 32.535156 L 250 32.535156 L 250 148 L 133 148 Z M 133 32.535156 " clip-rule="nonzero"/></clipPath><clipPath id="31c67e19fe"><path d="M 4 152 L 295 152 L 295 267.285156 L 4 267.285156 Z M 4 152 " clip-rule="nonzero"/></clipPath></defs><g clip-path="url(#4ff59579e8)"><path fill="#ffffff" d="M 191.609375 147.96875 C 223.425781 147.96875 249.3125 122.082031 249.3125 90.257812 C 249.3125 58.4375 223.425781 32.546875 191.609375 32.546875 C 159.789062 32.546875 133.902344 58.4375 133.902344 90.257812 C 133.902344 122.082031 159.789062 147.96875 191.609375 147.96875 Z M 143.496094 90.257812 C 143.496094 63.726562 165.078125 42.144531 191.609375 42.144531 C 218.136719 42.144531 239.71875 63.726562 239.71875 90.257812 C 239.71875 116.789062 218.136719 138.375 191.609375 138.375 C 165.078125 138.375 143.496094 116.789062 143.496094 90.257812 Z M 143.496094 90.257812 " fill-opacity="1" fill-rule="nonzero"/></g><path fill="#ffffff" d="M 177.511719 116.6875 C 180.003906 119.125 183.324219 120.835938 186.976562 121.589844 L 186.9375 126.691406 C 186.917969 129.265625 189 131.375 191.570312 131.394531 L 191.605469 131.394531 C 194.160156 131.394531 196.253906 129.3125 196.273438 126.757812 L 196.3125 121.574219 C 199.949219 120.808594 203.257812 119.089844 205.734375 116.65625 C 208.613281 113.832031 210.199219 110.214844 210.199219 106.472656 L 210.199219 104.410156 C 210.199219 99.433594 207.398438 94.730469 202.707031 91.824219 L 186.0625 81.519531 C 184.109375 80.3125 182.992188 78.617188 182.992188 76.875 L 182.992188 73.652344 C 182.992188 72.082031 183.859375 70.574219 185.4375 69.40625 C 187.152344 68.132812 189.460938 67.429688 191.925781 67.429688 C 194.394531 67.429688 196.699219 68.128906 198.417969 69.40625 C 199.996094 70.574219 200.863281 72.082031 200.863281 73.652344 L 200.863281 77.289062 C 200.863281 79.863281 202.957031 81.957031 205.53125 81.957031 C 208.105469 81.957031 210.199219 79.863281 210.199219 77.289062 L 210.199219 73.652344 C 210.199219 66.539062 204.554688 60.390625 196.59375 58.609375 L 196.59375 53.792969 C 196.59375 51.21875 194.5 49.121094 191.925781 49.121094 C 189.351562 49.121094 187.257812 51.21875 187.257812 53.792969 L 187.257812 58.609375 C 179.300781 60.390625 173.65625 66.539062 173.65625 73.652344 L 173.65625 76.875 C 173.65625 81.847656 176.457031 86.554688 181.148438 89.457031 L 197.792969 99.765625 C 199.742188 100.972656 200.863281 102.664062 200.863281 104.410156 L 200.863281 106.46875 C 200.863281 108.039062 199.996094 109.546875 198.417969 110.714844 C 196.699219 111.992188 194.394531 112.691406 191.925781 112.691406 L 191.292969 112.691406 C 188.824219 112.691406 186.519531 111.992188 184.800781 110.714844 C 183.226562 109.546875 182.355469 108.039062 182.355469 106.46875 L 182.355469 104.46875 C 182.355469 101.894531 180.261719 99.796875 177.6875 99.796875 C 175.113281 99.796875 173.019531 101.894531 173.019531 104.46875 L 173.019531 106.46875 C 173.019531 110.230469 174.613281 113.859375 177.511719 116.6875 Z M 177.511719 116.6875 " fill-opacity="1" fill-rule="nonzero"/><g clip-path="url(#31c67e19fe)"><path fill="#ffffff" d="M 288.949219 161.835938 C 282.441406 154.605469 272.042969 153.882812 264.734375 160.144531 L 221.871094 194.816406 C 221.890625 194.394531 221.898438 193.96875 221.890625 193.542969 C 221.71875 183.203125 213.601562 174.792969 203.792969 174.792969 L 156.203125 174.792969 C 153.460938 174.792969 150.875 173.207031 149.28125 170.554688 C 148.9375 169.980469 148.464844 169.503906 147.9375 169.089844 C 128.453125 153.71875 102.269531 151.703125 79.847656 161.671875 L 71.558594 165.355469 L 54.910156 165.355469 L 54.910156 157.753906 C 54.910156 155.023438 52.699219 152.8125 49.96875 152.8125 L 8.945312 152.8125 C 6.214844 152.8125 4.003906 155.023438 4.003906 157.753906 L 4.003906 249.132812 C 4.003906 251.863281 6.214844 254.074219 8.945312 254.074219 L 49.96875 254.074219 C 52.699219 254.074219 54.910156 251.863281 54.910156 249.132812 L 54.910156 241.292969 L 71.84375 241.292969 L 130.4375 259.898438 C 143.726562 264.8125 154.867188 267.269531 166.007812 267.269531 C 174.9375 267.269531 183.867188 265.691406 193.902344 262.535156 C 194.828125 262.246094 195.757812 261.941406 196.699219 261.625 C 198.734375 260.84375 200.707031 259.914062 202.609375 258.851562 C 204.179688 257.976562 205.664062 256.957031 207.054688 255.824219 L 288.929688 189.019531 C 289.199219 188.796875 289.445312 188.550781 289.664062 188.277344 C 295.753906 180.664062 295.4375 169.050781 288.949219 161.835938 Z M 45.03125 244.195312 L 13.882812 244.195312 L 13.882812 162.695312 L 45.03125 162.695312 Z M 282.234375 181.730469 L 205.871094 244.039062 C 199.199219 249.480469 191.382812 253.34375 183 255.304688 C 166.402344 259.1875 152.714844 257.617188 133.761719 250.59375 C 133.6875 250.566406 133.613281 250.542969 133.539062 250.519531 L 74.101562 231.644531 C 73.621094 231.492188 73.113281 231.414062 72.609375 231.414062 L 54.910156 231.414062 L 54.910156 175.238281 L 72.609375 175.238281 C 73.300781 175.238281 73.984375 175.09375 74.617188 174.8125 L 83.863281 170.699219 C 102.75 162.304688 124.191406 164.507812 141.402344 176.566406 C 144.847656 181.664062 150.308594 184.675781 156.203125 184.675781 L 203.792969 184.675781 C 208.242188 184.675781 211.929688 188.726562 212.011719 193.707031 C 212.058594 196.457031 211.066406 199.066406 209.289062 200.871094 C 208.417969 201.757812 207.398438 202.398438 206.3125 202.761719 C 204.90625 202.988281 203.480469 203.105469 202.039062 203.105469 L 149.101562 203.105469 C 146.382812 203.105469 144.121094 205.265625 144.085938 207.980469 C 144.050781 210.738281 146.277344 212.984375 149.027344 212.984375 L 204.21875 212.984375 C 205.703125 212.984375 207.164062 212.789062 208.570312 212.402344 C 214.730469 211.292969 220.546875 208.601562 225.65625 204.46875 L 271.007812 167.78125 C 271.046875 167.746094 271.089844 167.714844 271.128906 167.679688 C 274.316406 164.921875 278.722656 165.246094 281.605469 168.449219 C 284.789062 171.988281 285.035156 177.84375 282.234375 181.730469 Z M 282.234375 181.730469 " fill-opacity="1" fill-rule="nonzero"/></g></svg>