<svg xmlns="http://www.w3.org/2000/svg" xmlns:xlink="http://www.w3.org/1999/xlink" width="400" zoomAndPan="magnify" viewBox="0 0 300 299.999988" height="400" preserveAspectRatio="xMidYMid meet" version="1.0"><defs><clipPath id="0bf267d26e"><path d="M 67.125 0 L 232.875 0 L 232.875 300 L 67.125 300 Z M 67.125 0 " clip-rule="nonzero"/></clipPath></defs><g clip-path="url(#0bf267d26e)"><path fill="#ffffff" d="M 67.144531 150 C 67.144531 105.878906 67.144531 61.757812 67.144531 17.636719 C 67.144531 6.679688 73.828125 0 84.722656 0 C 128.179688 0 171.699219 0 215.160156 0 C 220.214844 0 224.546875 1.203125 228.160156 4.875 C 231.230469 8.003906 232.796875 11.738281 232.796875 16.070312 C 232.855469 43.878906 232.796875 71.6875 232.796875 99.558594 C 232.796875 113.28125 232.796875 127.007812 232.796875 140.730469 C 232.796875 188.160156 232.796875 235.535156 232.796875 282.964844 C 232.796875 293.078125 226.054688 299.820312 215.699219 299.878906 C 203.722656 300 191.742188 299.878906 179.765625 299.878906 C 147.984375 299.878906 116.203125 299.878906 84.421875 299.878906 C 74.066406 299.941406 67.144531 293.136719 67.144531 282.605469 C 67.144531 243.539062 67.203125 204.472656 67.203125 165.410156 C 67.203125 160.234375 67.203125 155.117188 67.203125 149.941406 C 67.203125 150 67.144531 150 67.144531 150 Z M 117.828125 7.222656 C 116.441406 7.222656 115.417969 7.222656 114.457031 7.222656 C 104.523438 7.222656 94.53125 7.222656 84.601562 7.222656 C 77.558594 7.222656 74.546875 10.234375 74.546875 17.335938 C 74.546875 32.082031 74.546875 46.828125 74.546875 61.578125 C 74.546875 96.1875 74.546875 130.859375 74.546875 165.46875 C 74.546875 204.894531 74.546875 244.320312 74.546875 283.746094 C 74.546875 290.429688 77.617188 293.5 84.359375 293.5 C 128.242188 293.5 172.0625 293.5 215.941406 293.5 C 222.082031 293.5 225.332031 290.25 225.332031 284.167969 C 225.332031 257.203125 225.269531 230.175781 225.332031 203.210938 C 225.390625 180.214844 225.511719 157.222656 225.570312 134.289062 C 225.570312 123.875 225.390625 113.523438 225.332031 103.109375 C 225.332031 74.339844 225.332031 45.625 225.332031 16.855469 C 225.332031 10.351562 222.199219 7.222656 215.640625 7.222656 C 205.40625 7.222656 195.175781 7.222656 184.941406 7.222656 C 183.980469 7.222656 183.015625 7.285156 181.871094 7.34375 C 181.871094 8.910156 181.871094 10.050781 181.871094 11.257812 C 181.871094 12.519531 181.933594 13.84375 181.871094 15.109375 C 181.75 18.417969 180.007812 20.34375 176.695312 20.34375 C 158.757812 20.40625 140.761719 20.40625 122.824219 20.34375 C 119.511719 20.34375 117.828125 18.417969 117.707031 15.109375 C 117.765625 12.640625 117.828125 10.050781 117.828125 7.222656 Z M 150.03125 13.542969 C 150.03125 13.484375 150.03125 13.421875 150.03125 13.363281 C 154.242188 13.363281 158.515625 13.363281 162.730469 13.363281 C 164.65625 13.363281 166.460938 13.0625 166.460938 10.714844 C 166.460938 8.367188 164.65625 8.125 162.730469 8.125 C 154.183594 8.1875 145.636719 8.246094 137.027344 8.246094 C 135.042969 8.246094 133.417969 8.789062 133.476562 11.074219 C 133.539062 13.242188 135.28125 13.605469 137.089844 13.605469 C 141.421875 13.542969 145.695312 13.542969 150.03125 13.542969 Z M 150.03125 13.542969 " fill-opacity="1" fill-rule="nonzero"/></g></svg>