<svg xmlns="http://www.w3.org/2000/svg" xmlns:xlink="http://www.w3.org/1999/xlink" width="400" zoomAndPan="magnify" viewBox="0 0 300 299.999988" height="400" preserveAspectRatio="xMidYMid meet" version="1.0"><defs><clipPath id="40e8734328"><path d="M 8 22.167969 L 292 22.167969 L 292 277.917969 L 8 277.917969 Z M 8 22.167969 " clip-rule="nonzero"/></clipPath></defs><path fill="#ffffff" d="M 161.753906 128.847656 C 142.628906 119.316406 119.769531 119.316406 100.640625 128.847656 C 98.273438 130.03125 97.324219 132.875 98.507812 135.183594 C 99.695312 137.550781 102.535156 138.5 104.847656 137.316406 C 121.308594 129.085938 140.96875 129.085938 157.433594 137.316406 C 158.082031 137.667969 158.855469 137.789062 159.5625 137.789062 C 161.28125 137.789062 163 136.839844 163.828125 135.183594 C 165.011719 132.875 164.066406 130.03125 161.753906 128.847656 Z M 161.753906 128.847656 " fill-opacity="1" fill-rule="nonzero"/><path fill="#ffffff" d="M 76.539062 160.34375 C 76.539062 160.964844 76.480469 161.582031 76.359375 162.191406 C 76.234375 162.800781 76.054688 163.394531 75.816406 163.96875 C 75.582031 164.542969 75.289062 165.089844 74.941406 165.605469 C 74.597656 166.125 74.203125 166.601562 73.765625 167.042969 C 73.324219 167.480469 72.847656 167.875 72.328125 168.21875 C 71.8125 168.566406 71.265625 168.855469 70.691406 169.09375 C 70.117188 169.332031 69.523438 169.511719 68.914062 169.632812 C 68.304688 169.753906 67.6875 169.816406 67.066406 169.816406 C 66.441406 169.816406 65.828125 169.753906 65.214844 169.632812 C 64.605469 169.511719 64.011719 169.332031 63.4375 169.09375 C 62.863281 168.855469 62.316406 168.566406 61.800781 168.21875 C 61.28125 167.875 60.804688 167.480469 60.363281 167.042969 C 59.925781 166.601562 59.53125 166.125 59.1875 165.605469 C 58.839844 165.089844 58.546875 164.542969 58.3125 163.96875 C 58.074219 163.394531 57.894531 162.800781 57.773438 162.191406 C 57.648438 161.582031 57.589844 160.964844 57.589844 160.34375 C 57.589844 159.722656 57.648438 159.105469 57.773438 158.496094 C 57.894531 157.886719 58.074219 157.292969 58.3125 156.71875 C 58.546875 156.144531 58.839844 155.597656 59.1875 155.082031 C 59.53125 154.5625 59.925781 154.085938 60.363281 153.644531 C 60.804688 153.207031 61.28125 152.8125 61.800781 152.46875 C 62.316406 152.121094 62.863281 151.832031 63.4375 151.59375 C 64.011719 151.355469 64.605469 151.175781 65.214844 151.054688 C 65.828125 150.933594 66.441406 150.871094 67.066406 150.871094 C 67.6875 150.871094 68.304688 150.933594 68.914062 151.054688 C 69.523438 151.175781 70.117188 151.355469 70.691406 151.59375 C 71.265625 151.832031 71.8125 152.121094 72.328125 152.46875 C 72.847656 152.8125 73.324219 153.207031 73.765625 153.644531 C 74.203125 154.085938 74.597656 154.5625 74.941406 155.082031 C 75.289062 155.597656 75.582031 156.144531 75.816406 156.71875 C 76.054688 157.292969 76.234375 157.886719 76.359375 158.496094 C 76.480469 159.105469 76.539062 159.722656 76.539062 160.34375 Z M 76.539062 160.34375 " fill-opacity="1" fill-rule="nonzero"/><g clip-path="url(#40e8734328)"><path fill="#ffffff" d="M 290.617188 171 C 287.890625 167.09375 284.574219 163.777344 280.726562 161.171875 C 283.390625 158.746094 285.226562 155.546875 285.878906 151.878906 C 286.707031 147.496094 285.757812 143.117188 283.214844 139.445312 C 280.726562 135.773438 276.9375 133.347656 272.554688 132.578125 C 268.171875 131.75 263.789062 132.695312 260.117188 135.242188 C 256.445312 137.730469 254.019531 141.519531 253.25 145.898438 C 252.714844 148.917969 252.953125 151.9375 254.019531 154.777344 C 250.167969 155.253906 246.378906 156.378906 242.765625 158.035156 L 239.984375 159.160156 C 234.710938 146.609375 225.296875 135.125 212.210938 125.652344 C 195.214844 113.335938 173.597656 105.640625 150.265625 103.390625 C 167.617188 98.476562 180.410156 82.492188 180.410156 63.550781 C 180.410156 40.757812 161.816406 22.167969 139.015625 22.167969 C 116.214844 22.167969 97.621094 40.757812 97.621094 63.550781 C 97.621094 81.960938 109.761719 97.648438 126.460938 102.976562 C 116.984375 103.570312 107.6875 105.050781 98.746094 107.476562 C 98.390625 107.417969 98.09375 107.417969 97.738281 107.417969 L 37.691406 111.445312 C 33.722656 111.679688 30.289062 114.109375 28.691406 117.71875 C 27.09375 121.328125 27.566406 125.472656 29.992188 128.613281 C 33.015625 132.519531 37.277344 137.847656 41.480469 142.878906 C 36.269531 149.570312 32.421875 156.734375 29.992188 164.25 L 18.742188 164.25 C 12.878906 164.25 8.082031 169.046875 8.082031 174.90625 L 8.082031 205.691406 C 8.082031 211.554688 12.878906 216.347656 18.742188 216.347656 L 36.804688 216.347656 C 41.480469 223.984375 47.757812 230.972656 55.457031 237.1875 L 55.457031 267.261719 C 55.457031 273.121094 60.253906 277.917969 66.117188 277.917969 L 87.4375 277.917969 C 93.296875 277.917969 98.09375 273.121094 98.09375 267.261719 L 98.09375 258.382812 C 110.175781 261.695312 122.90625 263.355469 135.996094 263.355469 C 145.648438 263.355469 155.183594 262.40625 164.421875 260.632812 L 164.421875 267.261719 C 164.421875 273.121094 169.21875 277.917969 175.078125 277.917969 L 196.398438 277.917969 C 202.261719 277.917969 207.058594 273.121094 207.058594 267.261719 L 207.058594 243.996094 C 231.160156 228.722656 244.957031 206.640625 244.957031 183.019531 L 244.957031 182.664062 C 244.957031 177.925781 244.367188 173.191406 243.242188 168.632812 C 243.242188 168.632812 243.300781 168.632812 243.300781 168.574219 C 249.28125 164.664062 256.328125 163.125 263.375 164.191406 C 264.441406 164.605469 265.507812 164.960938 266.691406 165.140625 C 267.222656 165.257812 267.757812 165.316406 268.289062 165.375 C 274.210938 167.328125 279.304688 171.175781 282.917969 176.386719 C 283.863281 177.75 285.34375 178.460938 286.824219 178.460938 C 287.773438 178.460938 288.660156 178.164062 289.488281 177.628906 C 291.5625 176.089844 292.097656 173.132812 290.617188 171 Z M 107.097656 63.550781 C 107.097656 45.964844 121.425781 31.640625 139.015625 31.640625 C 156.601562 31.640625 170.933594 45.964844 170.933594 63.550781 C 170.933594 81.132812 156.601562 95.460938 139.015625 95.460938 C 121.425781 95.460938 107.097656 81.132812 107.097656 63.550781 Z M 235.421875 183.019531 C 235.421875 203.914062 222.453125 223.6875 199.832031 237.246094 C 198.410156 238.074219 197.523438 239.671875 197.523438 241.332031 L 197.523438 267.261719 C 197.523438 267.914062 196.992188 268.445312 196.339844 268.445312 L 175.019531 268.445312 C 174.367188 268.445312 173.835938 267.914062 173.835938 267.261719 L 173.835938 254.710938 C 173.835938 253.230469 173.183594 251.867188 172 250.980469 C 171.171875 250.328125 170.105469 249.976562 169.097656 249.976562 C 168.742188 249.976562 168.328125 250.035156 167.972656 250.09375 C 157.667969 252.578125 146.890625 253.882812 135.9375 253.882812 C 121.546875 253.882812 107.6875 251.75 94.777344 247.488281 C 93.359375 247.015625 91.757812 247.25 90.515625 248.140625 C 89.273438 249.027344 88.5625 250.449219 88.5625 251.988281 L 88.5625 267.261719 C 88.5625 267.914062 88.027344 268.445312 87.375 268.445312 L 66.058594 268.445312 C 65.40625 268.445312 64.875 267.914062 64.875 267.261719 L 64.875 234.878906 C 64.875 233.398438 64.164062 232.035156 63.039062 231.148438 C 54.6875 224.753906 48.113281 217.355469 43.554688 209.304688 C 42.726562 207.824219 41.125 206.875 39.410156 206.875 L 18.683594 206.875 C 18.03125 206.875 17.5 206.34375 17.5 205.691406 L 17.5 174.90625 C 17.5 174.257812 18.03125 173.722656 18.683594 173.722656 L 33.488281 173.722656 C 35.621094 173.722656 37.515625 172.242188 38.046875 170.171875 C 40.238281 161.585938 44.679688 153.417969 51.132812 145.957031 C 52.675781 144.183594 52.675781 141.578125 51.132812 139.800781 C 46.277344 134.117188 40.949219 127.429688 37.394531 122.808594 C 37.039062 122.335938 37.101562 121.921875 37.277344 121.625 C 37.394531 121.332031 37.691406 120.976562 38.285156 120.914062 L 95.609375 117.066406 C 96.199219 117.304688 96.792969 117.480469 97.503906 117.480469 C 97.917969 117.480469 98.332031 117.421875 98.746094 117.304688 C 110.53125 113.929688 123.027344 112.214844 135.816406 112.214844 C 190.476562 112.214844 235.066406 143.886719 235.304688 182.722656 L 235.304688 183.019531 Z M 276.582031 150.160156 C 276.226562 152.054688 275.160156 153.652344 273.621094 154.71875 C 272.496094 155.488281 271.191406 155.902344 269.828125 155.964844 C 268.703125 155.609375 267.578125 155.371094 266.453125 155.132812 C 266.394531 155.132812 266.277344 155.132812 266.21875 155.074219 C 265.269531 154.542969 264.441406 153.832031 263.789062 152.882812 C 262.722656 151.34375 262.308594 149.449219 262.664062 147.554688 C 263.019531 145.660156 264.085938 144.0625 265.625 142.996094 C 266.808594 142.167969 268.230469 141.753906 269.652344 141.753906 C 270.066406 141.753906 270.539062 141.8125 270.953125 141.871094 C 272.851562 142.226562 274.449219 143.292969 275.515625 144.832031 C 276.519531 146.371094 276.9375 148.265625 276.582031 150.160156 Z M 276.582031 150.160156 " fill-opacity="1" fill-rule="nonzero"/></g><path fill="#ffffff" d="M 139.132812 92.796875 C 141.738281 92.796875 143.871094 90.722656 143.871094 88.117188 L 143.871094 85.925781 C 149.261719 84.269531 153.109375 79.828125 153.109375 74.621094 L 153.109375 73.257812 C 153.109375 69.351562 150.976562 65.738281 147.363281 63.492188 L 136.292969 56.621094 C 135.519531 56.148438 134.988281 55.5 134.988281 54.90625 L 134.988281 52.773438 C 134.988281 51.769531 136.648438 50.230469 139.3125 50.230469 C 141.976562 50.230469 143.632812 51.710938 143.632812 52.773438 L 143.632812 55.203125 C 143.632812 57.808594 145.765625 59.9375 148.371094 59.9375 C 150.976562 59.9375 153.109375 57.808594 153.109375 55.203125 L 153.109375 52.773438 C 153.109375 47.625 149.320312 43.183594 144.050781 41.527344 L 144.050781 39.574219 C 144.050781 36.96875 141.917969 34.835938 139.3125 34.835938 C 136.707031 34.835938 134.574219 36.96875 134.574219 39.574219 L 134.574219 41.527344 C 129.304688 43.183594 125.511719 47.625 125.511719 52.773438 L 125.511719 54.90625 C 125.511719 58.8125 127.644531 62.425781 131.257812 64.675781 L 142.332031 71.542969 C 143.101562 72.015625 143.632812 72.667969 143.632812 73.257812 L 143.632812 74.621094 C 143.632812 75.625 141.976562 77.164062 139.3125 77.164062 L 138.898438 77.164062 C 136.230469 77.164062 134.574219 75.6875 134.574219 74.621094 L 134.574219 73.257812 C 134.574219 70.652344 132.441406 68.523438 129.835938 68.523438 C 127.230469 68.523438 125.097656 70.652344 125.097656 73.257812 L 125.097656 74.621094 C 125.097656 79.890625 129.007812 84.328125 134.394531 85.925781 L 134.394531 88.058594 C 134.394531 90.664062 136.46875 92.796875 139.132812 92.796875 Z M 139.132812 92.796875 " fill-opacity="1" fill-rule="nonzero"/></svg>